<svg xmlns="http://www.w3.org/2000/svg" width="31" height="31" viewBox="0 0 31 31">
  <g id="airport" transform="translate(-241 -1262)">
    <path id="Path_3485" data-name="Path 3485" d="M15.5,0A15.5,15.5,0,1,1,0,15.5,15.5,15.5,0,0,1,15.5,0Z" transform="translate(241 1262)" fill="#242634"/>
    <g id="plane_1_" data-name="plane (1)" transform="translate(250 1271)">
      <g id="Group_581" data-name="Group 581" transform="translate(0 0)">
        <path id="Path_3297" data-name="Path 3297" d="M13.958,1.661A1.644,1.644,0,0,0,12.315,0H12.3a1.631,1.631,0,0,0-1.169.506L8.685,3.051,2.292.936.4,2.824l5.342,3.29L3.548,8.4,1.823,8.121,0,9.944l2.973,1.041,1.041,2.973,1.823-1.823L5.554,10.41l2.291-2.2,3.29,5.343,1.888-1.888L10.907,5.273,13.452,2.83A1.632,1.632,0,0,0,13.958,1.661Zm-1.072.579L9.967,5.04l2.119,6.4-.8.8L8.01,6.918l-3.333,3.2.285,1.736-.605.605-.741-2.116L1.5,9.6,2.1,9l1.736.285,3.2-3.333L1.716,2.67l.8-.8,6.4,2.119,2.8-2.918a.819.819,0,0,1,.587-.254h.009a.825.825,0,0,1,.571,1.421Z" transform="translate(0 0)" fill="#f18d46"/>
      </g>
    </g>
  </g>
</svg>
