<svg xmlns="http://www.w3.org/2000/svg" width="27" height="27" viewBox="0 0 27 27">
  <g id="Close_fullscreen" transform="translate(-14810.5 -15395.5)">
    <g id="Group_761" data-name="Group 761" transform="translate(14811.5 15396.5)">
      <g id="Group_759" data-name="Group 759" transform="translate(0 0)">
        <g id="Group_757" data-name="Group 757">
          <g id="Group_754" data-name="Group 754">
            <path id="Path_3329" data-name="Path 3329" d="M393.959,293.7h18.882a3.075,3.075,0,0,0,3.059-3.059V271.759a3.075,3.075,0,0,0-3.059-3.059H393.959a3.076,3.076,0,0,0-3.059,3.059v18.882A3.056,3.056,0,0,0,393.959,293.7Z" transform="translate(-390.9 -268.7)" fill="none" stroke="#fff" stroke-miterlimit="10" stroke-width="2"/>
            <g id="Group_715" data-name="Group 715" transform="translate(3.72 3.738)">
              <g id="Group_713" data-name="Group 713" transform="translate(9.832)">
                <path id="Path_3330" data-name="Path 3330" d="M433.6,280.6v6.193a1.421,1.421,0,0,0,1.425,1.4h6.267" transform="translate(-433.6 -280.6)" fill="none" stroke="#fff" stroke-linecap="round" stroke-miterlimit="10" stroke-width="2"/>
              </g>
              <g id="Group_714" data-name="Group 714" transform="translate(0 9.93)">
                <path id="Path_3331" data-name="Path 3331" d="M409.492,318.494V312.3a1.421,1.421,0,0,0-1.425-1.4H401.8" transform="translate(-401.8 -310.9)" fill="none" stroke="#fff" stroke-linecap="round" stroke-miterlimit="10" stroke-width="2"/>
              </g>
            </g>
          </g>
        </g>
      </g>
    </g>
  </g>
</svg>
