<svg id="instagram" xmlns="http://www.w3.org/2000/svg" width="17.459" height="17.463" viewBox="0 0 17.459 17.463">
  <path id="Path_3259" data-name="Path 3259" d="M17.864,5.134a6.381,6.381,0,0,0-.406-2.119A4.473,4.473,0,0,0,14.9.461,6.4,6.4,0,0,0,12.784.055C11.85.01,11.553,0,9.182,0s-2.668.01-3.6.051A6.383,6.383,0,0,0,3.464.457a4.261,4.261,0,0,0-1.549,1.01A4.3,4.3,0,0,0,.909,3.012,6.4,6.4,0,0,0,.5,5.131c-.044.935-.055,1.232-.055,3.6s.01,2.668.051,3.6a6.381,6.381,0,0,0,.406,2.119,4.473,4.473,0,0,0,2.555,2.555,6.4,6.4,0,0,0,2.119.406c.931.041,1.228.051,3.6.051s2.668-.01,3.6-.051a6.38,6.38,0,0,0,2.118-.406,4.467,4.467,0,0,0,2.555-2.555,6.4,6.4,0,0,0,.406-2.119c.041-.931.051-1.228.051-3.6s0-2.668-.044-3.6Zm-1.573,7.13a4.787,4.787,0,0,1-.3,1.62,2.9,2.9,0,0,1-1.658,1.658,4.8,4.8,0,0,1-1.62.3c-.921.041-1.2.051-3.527.051s-2.61-.01-3.527-.051a4.784,4.784,0,0,1-1.62-.3,2.687,2.687,0,0,1-1-.652,2.715,2.715,0,0,1-.652-1,4.8,4.8,0,0,1-.3-1.62c-.041-.921-.051-1.2-.051-3.527s.01-2.61.051-3.527a4.784,4.784,0,0,1,.3-1.62,2.654,2.654,0,0,1,.655-1,2.711,2.711,0,0,1,1-.652,4.807,4.807,0,0,1,1.62-.3c.921-.041,1.2-.051,3.527-.051s2.61.01,3.527.051a4.787,4.787,0,0,1,1.62.3,2.685,2.685,0,0,1,1,.652,2.714,2.714,0,0,1,.652,1,4.806,4.806,0,0,1,.3,1.62c.041.921.051,1.2.051,3.527s-.01,2.6-.051,3.524Zm0,0" transform="translate(-0.449 0)" fill="#f2f5f7"/>
  <path id="Path_3260" data-name="Path 3260" d="M129.435,124.5a4.486,4.486,0,1,0,4.486,4.486A4.487,4.487,0,0,0,129.435,124.5Zm0,7.4a2.91,2.91,0,1,1,2.91-2.91A2.91,2.91,0,0,1,129.435,131.9Zm0,0" transform="translate(-120.702 -120.253)" fill="#f2f5f7"/>
  <path id="Path_3261" data-name="Path 3261" d="M364.544,89.649A1.047,1.047,0,1,1,363.5,88.6,1.047,1.047,0,0,1,364.544,89.649Zm0,0" transform="translate(-350.1 -85.579)" fill="#f2f5f7"/>
</svg>
