<svg id="Linkedin" xmlns="http://www.w3.org/2000/svg" xmlns:xlink="http://www.w3.org/1999/xlink" width="16.74" height="15.997" viewBox="0 0 16.74 15.997">
  <defs>
    <clipPath id="clip-path">
      <path id="Mask" d="M13.152,16V10.222c0-1.451-.518-2.441-1.817-2.441A1.963,1.963,0,0,0,9.494,9.094a2.465,2.465,0,0,0-.119.875V16H5.786s.048-9.782,0-10.794H9.375V6.733c-.008.012-.018.024-.024.035h.024V6.733a3.563,3.563,0,0,1,3.234-1.783c2.361,0,4.132,1.543,4.132,4.858V16ZM.214,16V5.2H3.8V16ZM1.984,3.73A1.87,1.87,0,1,1,2.031,0a1.871,1.871,0,1,1-.024,3.73Z" fill="#f2f5f7"/>
    </clipPath>
  </defs>
  <path id="Mask-2" data-name="Mask" d="M13.152,16V10.222c0-1.451-.518-2.441-1.817-2.441A1.963,1.963,0,0,0,9.494,9.094a2.465,2.465,0,0,0-.119.875V16H5.786s.048-9.782,0-10.794H9.375V6.733c-.008.012-.018.024-.024.035h.024V6.733a3.563,3.563,0,0,1,3.234-1.783c2.361,0,4.132,1.543,4.132,4.858V16ZM.214,16V5.2H3.8V16ZM1.984,3.73A1.87,1.87,0,1,1,2.031,0a1.871,1.871,0,1,1-.024,3.73Z" transform="translate(0 0)" fill="#f2f5f7"/>
  <g id="Mask_Group_55" data-name="Mask Group 55" transform="translate(0 0)" clip-path="url(#clip-path)">
    <path id="Atoms_Colors_Black" data-name="Atoms / Colors / Black" d="M0,0H29.534V29.534H0Z" transform="translate(-6.153 -7.383)" fill="#f2f5f7"/>
  </g>
</svg>
