<svg xmlns="http://www.w3.org/2000/svg" xmlns:xlink="http://www.w3.org/1999/xlink" width="1285" height="700" viewBox="0 0 1285 700">
  <defs>
    <clipPath id="clip-path">
      <rect id="Rectangle_3217" data-name="Rectangle 3217" width="1285" height="700" rx="30" transform="translate(11512 12268)" fill="#323c4c"/>
    </clipPath>
    <radialGradient id="radial-gradient" cx="0.5" cy="0.5" r="0.889" gradientUnits="objectBoundingBox">
      <stop offset="0" stop-color="#545870" stop-opacity="0"/>
      <stop offset="1" stop-color="#545870"/>
    </radialGradient>
  </defs>
  <g id="Group_920" data-name="Group 920" transform="translate(-41 -808)">
    <g id="Group_918" data-name="Group 918">
      <g id="Mask_Group_110" data-name="Mask Group 110" transform="translate(-11471 -11460)" clip-path="url(#clip-path)">
        <path id="Path_3357" data-name="Path 3357" d="M28,0H1271a28,28,0,0,1,28,28V692a28,28,0,0,1-28,28H28A28,28,0,0,1,0,692V28A28,28,0,0,1,28,0Z" transform="translate(11505 12258)" fill="#242634"/>
        <g id="Group_839" data-name="Group 839" transform="translate(-14 -38)">
          <path id="Path_3265" data-name="Path 3265" d="M10563.319,7509.838c.869.917-4.908,4.788-2.351,5.77s6.337,0,6.337,0l1.575,4.553s4.165-1.785,4.761,0,5,6.307,6.96,6.129,6.932,2.378,6.932,2.378,8.509-.028,6.932,4.165-5.147,4.817-5.147,8.953v10.086s4.939,17.49,7.526,20.049,12.612,17.373,14.993,19.544,9.905,5.175,9.905,7.14-1.636,3.125,1.965,4.73,10.529,4.374,10.529,4.374-1.4,16.3,0,18.264,6.368-2.172,8.538,0,8.331,2.946,6.934,6.723.088,5.028-2.082,9.608-13.479-3.182-15.263,0,2.795,15.053,0,17.254-9.34,9.34-12.7,9.34-8.746-3.362-10.323,0-1.575,7.349-3.361,7.734-24.987,0-24.987,0-5.769-.624-6.752,2.767-3.183,7.437-8.33,8.24-13.476,0-13.476,0l-6.157-8.24s-5.355-4.461-9.906,0-11.691,13.179-11.691,13.179l-7.348,2.588V7679.4s-4.849-1.189-5.059,3.182,0,12.585,0,12.585-.809,5.932-5.449,8.021-9.786,0-9.786,0,2.051,6.189,0,10.327-6.962,13.689-9.282,11.871,0-5.18,0-5.18,1.816-5.415,0-6.691-4.138-.31-2.59-4.912-1.007-9.553,2.59-8.509a5.842,5.842,0,0,0,5.917-1.779s-8.375-5.216-8.507-5.736.36-8.788,0-10-6.1-3.067-3.883-5.949,5.388-3.937,4.683-6.05-3.624-2.587-3.624-2.587-1.163-7.041,0-9.857,5.414-9.733,5.414-9.733-8.2-5.58-8.426-10.033-.809-9.964-.809-9.964-6.919-5.65-4.1-7.639,4.1,0,4.1,0l10.912-6.336s1.779-2.587-7.092-1.056-7.924-4.93-7.924-4.93-4.119-8.325-2.939-8.8,3.663-1.162,2.939-3.4-4.947-6.936-4.472-9.98,0-11.142,0-11.142-5.031-2.605-4.1-5.527,1.532-4.805,1.532-4.805l-5.279-5.861s-2.342-3.168,0-5.052a23.285,23.285,0,0,1,5.279-3.044s1.657-2.413,0-3.7-5.632-3.771-4.348-5.353,9.964-8.728,9.964-8.728l-.986-9.981s-5.054-4.728-2.062-7.469,5-4.5,5-4.5-2.919-9.628,0-11.266,3.873,1.18,6.214,0,3.609-5.4,5.035-5.052,5.527,6.108,6.813,6.108,4.7.229,5.051-1.056,2.938-9.488,5.985-9.734,7.27-.6,7.27,2.341-.706,10.122,0,11.864,7.587,2.374,10.28,5.525,2.236,7.1,3.521,5.77,3.89-6.842,9.856-4.5,9.629,9.058,11.266,9.053,3.624-2.029,3.749-5.656,2.254-7.163,4.7-7.743S10562.451,7508.921,10563.319,7509.838Z" transform="translate(1163.561 5160.325)" fill="#32364f" stroke="#545870" stroke-width="2"/>
          <path id="Path_3266" data-name="Path 3266" d="M10598.767,7577.805s-7.869-1.056-7.744,1.408.7,5.527-.827,6.813-7.271,2.605-9.029,1.531-6.918-2.34-6.918,0,2.535,6.572,2.535,6.572l9.788,4.79s-.458,11.028,0,13.035c.337,1.483,1.727,4.318,2.676,4.823a8.077,8.077,0,0,0,2.1.948c1.189-.089,2.756.589,3.967-.441a8.541,8.541,0,0,1,2.04-.507c1.3.581,3.366,1.991,3.967,3.381s1.4,1.782,2.49,2.74c0,0,2.479,0,2.491,0,5.259-.813,1.6,3.437,2.906,5.2s2.939.949,5.757,0,3.623-3.045,5.155-1.409,3.151,4.472,5.51,4,3.873-5.4,6.46-4,7.216,3.82,7.34,6.161-.58,6.32,0,8.907,2.342,2.219,5.634,3.168,9.98.7,12.094,3.644,4.559,5.28,6.442,4.928,3.395-4.241,4.573-2.939,3.273,4.7,4.578,2.939,3.522-3.767,6.109-2.939,6.792.7,7.269,2.939-4.453,6.107-4.453,6.107-1.46,3.734-3.7,4.684-5.385-2.237-7.394,1.882-4.349,12.093-4.225,15.489,11.215,10.968,13.556,13.554.7,6.936,1.759,9.98,9.91,10.914,12.5,12.2,6.478.581,6.108,3.168.648,5.052,2.869,8.1,4.471,2.834,7.744,5.175,2.535.863,2.992,6.618,2.115,10.563,5.634,14.206,8.905,5.386,9.028,7.973-2.639,10.049-1.936,13.449,6.916,7.956,8.324,9.61,7.992,1.425,9.4-1.637,2.236-7.516,5.282-6.812,6.338-1.161,6.917.827-.827,15.014,0,16.775,7.165,2.111,7.165,0,8.676-3.749,8.8-1.285-1.059,4.1-2.465,6.917-2.359,6.46-1.531,9.629,4,7.042,5.051,4.928,1.657-6,2.589-8.7,4.453-3.628,4.453-3.628,6.106-2.128,6.335-4.822-.122-4.91.935-4.33,6.917,3.168,11.968,0,5.986-4.806,5.986-4.806,8.1.475,8.1-1.056,7.008-15.719,8.168-16.669,6.213-1.3,6.213-1.3a8.416,8.416,0,0,0,4.351,2.588c2.568.474,1.967-3.539,4.679-2.588s5.529,6,8.573,5.173,7.041-4.575,7.746-7.04,3.977-6.688,6.214-4.348,1.053,2.833,5.756,3.291,7.022-2.006,7.269-3.291-3.17-3.767,0-5.632,4.1.106,8.8-3.644,11.617-12.551,12.093-13.255-1.6-2.694-3.59-5.158-5.511-1.409-5.862-3.168-.105-8.678-3.4-9.152-7.764-.7-8.044-2.465-1.216-8.22-4.63-8.22a5.229,5.229,0,0,0-4.7,2.694s-2.71,5.879-6.459,6.811-7.27-1.162-7.27,1.18-1.885,7.744-2.818,9.152-4.929,4.807-6.337,4.807-7.975-5.986-10.561-4.807-3.624,2.325-3.4,3.979-1.056,11.74-1.056,11.74-32.914-27.653-33.619-28.111-21.7-22.759-21.7-22.759-3.977-5.281,1.408-5.281,10.912-.229,11.493,1.056,5.616,3.626,7.975,2.113,3.746-6.918,3.167-9.857-6.69-8.221-6.69-8.221-2.341-3.152,0-6.091,3.54-5.773,5.528-5.176,4.93,4.244,9.031,5.176a15.748,15.748,0,0,0,7.27,0s1.653-4.717,4.7-5.176,5.177-2.816,4.7,0-2.714,6.232-3.646,6.813-4.222,2.219-3.517,4.454a3.942,3.942,0,0,0,2.462,2.709s4.245-2.463,6.813,0,3.872,5.389,6.565,5.512,4.557-.354,3.749-1.057-1.232-11.618-1.232-11.618-.033-3.062,2.537-4,2.11,4,2.11,4-1.937,1.583.757,2.64,6.564,2.71,6.689,4.522.353,8.257,1.636,10.493,4.33,4.577,5.986,2.763a40.534,40.534,0,0,0,5.527-7.744c1.16-2.412,2.569-5.564-.951-5.512s-8.554,2.06-8.327,0,.725-5.457,2.237-5.457,10.79-1.706,10.79-1.706,2.55-.017-2.007-4-5.493-4.682-4.682-6.442a5.788,5.788,0,0,1,1.988-2.465l7.04,7.271s.95,4.928,3.645,5.632,12.8-1.426,14.2-4-.02-4.331-1.655-4.331-7.621-1.284-7.973-2.111,0-5.281,0-5.281-3.7-3.8-1.937-6.743,7.87-4.928,7.87-4.928,9.133-4.488,10.313-7.41,3.167-8.326,1.759-8.908-4.348-3.045-4.224-4.224,2.465-6.241,2.465-6.241-5.013-6.2-8.979-5.131-7.489.19-7.853-.542.007-3.791-1.352-4.7-2.981,1.165-2.981,1.165-4.684,8.949-5.592,10.033-2.168,1.435-2.8.718,1.623-6.771-.719-8.4a4.357,4.357,0,0,1-1.229-5.606c.689-.812,4.207-1.625,4.207-3.154s-1.99-3.426-2.26-3.521-14.261.677-15.342,0-9.978-13.269-9.978-13.269-6.041-2.869-6.677-1.164-.475,1.881-2.084,2.152-3.2-2.152-8.612-4.415-11.275.907-13.538-1.083-4.227-6.5-5.593-6.5-17.211-1.505-17.115-.772-2.8,1.91-4.063,2.533-5.049-3.171-6.132-3.074-6.053.921-5.511-1.977,4.5-6.771,2.884-7.407-7.477,4.413-8.477,3.966-1.435-8.839-.813-9.923a7.537,7.537,0,0,0,.813-2.262,10.771,10.771,0,0,1-4.836,1.178c-3.249.176-8.3-1.99-8.839-2.8s-1.816-4.333-3.348-4.508-7.117-.461-7.485-.909-1.435-4.507,0-5.049a36.119,36.119,0,0,1,8.125-.988c.637.175,4.1,1.489,5.457.988s2.707-2.776,0-4.387-5.689-1.978-4.781-4.143,4.049-4.794,4.781-5.335,0-5.5,0-5.5-10.028.617-12.6,0-4.684-3.187-8.556-3.891-13.375-4.471-16.191-2.008-7.519,1.656-11.039,2.008-5.507-4.945-9.856-3.538-3.748,3.538-3.748,3.538-5.772-1.426-6.707,1.866,1.321,6.441,3.538,8.448,10.1,2.923,11.617,5.158,4.1,6.793,4.1,6.793-1.935,6.532-3.343,6.945-2.588,1.687-1.885,4.508c-4.8-1.982-11.119.3-11.369,1.625s-14.8,10.808-16.793,13.043-6.214,7.633-6.214,7.633-4.7.874-5.633,0-3.538-4.975-5.053-5.1-16.194-.353-17.953,0-6.916-.705-6.213-5.4.121-9.98-4.225-7.394-10.316,5.528-10.914,8.925S10598.767,7577.805,10598.767,7577.805Z" transform="translate(1208.282 5168.491)" fill="#32364f" stroke="#545870" stroke-width="2"/>
          <path id="Path_3267" data-name="Path 3267" d="M10699.391,7560.046a17.739,17.739,0,0,1-.263-3.08,7.733,7.733,0,0,1,.992-3.966,3.1,3.1,0,0,1,.99-1c2.979-1.978,7.313-2.343,6.5-5.863s-3.25-4.157-3.25-4.157a2.661,2.661,0,0,1,0-3.7c1.705-1.989,4.794-2.613,5.146-5.321s-2.437-5.875-2.437-5.875-.813-3.2,0-4.916,8.205-4.6,8.205-4.6,6.051-2.355,6.863-3.344,1.164-2.708,2.708-2.708,5.255-.625,4.522,1a7.966,7.966,0,0,0,.622,7.312,11.475,11.475,0,0,0,6.23,4.333c.813.081,6.339.257,6.147-1.99s-1.828-5.429-1.909-6.864-4.427-2.261-4.238-3.792,2.652-2.3,4.238-3.021,3.032-4.956,3.3-6.134,1.26-7.419,3.7-7.5a22.7,22.7,0,0,1,7.488,1.368c1.544.623,8.665-2.152,11.739-3.521s6.284-.406,6.73-3.48-1.45-3.086-2.167-6.146-2.262-4.86,0-6.04a57.17,57.17,0,0,0,5.86-3.887s-.134-4.739,1.857-6.093a13.224,13.224,0,0,1,5.321-1.624l11.374-13.175s5.416-5.416,9.207-5.145,6.758-.367,7.217,2.978,3.306,11.944,5.47,12.674,4.429,1.341,5.146,0,9.111-8.613,11.008-11.145.557-6.4,4.522-6.4,6.595.909,6.771,1.9,2.881-.988,6.133,0,5.065-.272,4.971-1.9,0-11.2,0-11.2-.287-2.438,2.787-2.438,6.132,1.56,5.957,3.171,2.548,6.092,5.606,10.465,9.75,6.351,11.007,6.4,2.726-2.653,3.075-4.507,1.6-5.188,4.591-4.469,4.791,8.381,5.6,8.977,2.871,1.775,1.164,3.3-5.4,2.073-5.4,3.7v5.049s6.472.258,5.4,3.7-2.721,3.249-6.769,3.615-10.469,1.449-10.469,1.449-10.043,6.824-10.5,10.968.542,8.111-1.354,10.914-7.271,8.082-7,12.416-2.978,13.985-5.416,17.872-8.381,11.293-8.573,15.627,5.945,6.985,8.748,16.192,4.429,18.239,2.709,21.489-6.1,7.176-6.365,9.884.894,10.913,0,13.174-4.685,6.579-4.508,9.207a6.155,6.155,0,0,0,2.166,4.158s8.435-.826,9.342,2.248-2.9,7.947-3.613,9.3a16.485,16.485,0,0,0-.99,5.239c0,.624,1.259,4.6-2.4,6.771s-7.446,3.887-7.446,5.958v8.3c0,.637-3.521,2.072-3.521,2.072s-4.319-4.78-6.31-5.051-10.479.623-10.654-.812.527-6.565-1.815-5.225-8.3,12.266-8.3,12.266-3.328,2.341-3.153.813,1.978-6.323.718-8.665-3.776-.527-2.611-4.414,4.234-3.266,5.047-3.982-1.813-4.509-2.436-4.509-15.285.542-15.922,0-9.208-13-9.208-13-4.44-2.6-5.7-1.8-.88,1.992-2.425,2.708-7.595-3.521-7.595-3.521-5.741-2.588-7.718-1.95-4.59,1.083-5.769.542-5.512-6.149-6.325-6.5-17.314-2.166-18.223-1.259a9.25,9.25,0,0,1-4.253,2.343c-2.167.636-5.24-2.343-5.24-2.343s-6.35-.542-6.443-1.9,3.6-6.228,3.6-6.228.174-3.425-2.344-1.625-6.052,4.863-6.594,4.416-2.343-6.583-1.531-8.031a48.116,48.116,0,0,0,2.166-5.781s-4.083,3.562-8.608,1.76-5.241-1.76-5.241-1.76-1.437-2.56-1.9-3.466-2.069-1.574-4.688-1.837-3.477.121-4.646-.951-.857-3.479,0-4.439,6.354-1.764,7.532-1.386a21.551,21.551,0,0,0,5.824.9c1.224-.16,3.149-1.77,2.025-3.26s-5.466-2.037-6.047-2.884a2.691,2.691,0,0,1,0-3.426c1.022-1.646,4.691-3.007,4.722-5.565s-3.228-7.24,1.64-10.87" transform="translate(1254.084 5133.087)" fill="#32364f" stroke="#545870" stroke-width="2"/>
          <path id="Path_3268" data-name="Path 3268" d="M10879.929,7403.409c2.341,1.461,6.338,8.694,7.042,9.858s7.41-2.571,9.5-.934,4.085,4.454,6.319,2.341a55.112,55.112,0,0,0,6.813-8.1c.475-1.057,3.977-3.538,1.409-7.287s-5.033-5.721-3.751-7.376,11.389-.775,14.434-6.406,3.066-10.667,5.054-11.846,11.492-2.589,13.956-1.409a8.489,8.489,0,0,0,9.734-1.636c3.291-3.186-.561-13.01,1.3-13.731s8.658-.352,10.313,0,7.146,2.694,4.928,3.749-3.643,4.314-4.928,6.8-.581,5.826,1.408,6.231,6.795-2.167,8.1,2.288,4.121,10.192,1.884,11.495-2.816,4.1-2.816,5.633,4.556,1.637,4.8,4.577,1.986,5.175,0,6.812-1.988,4.805-1.988,5.862,3.044,3.713,3.169,5.7.806,6.458-1.181,6.563-6.792-5.4-6.792-5.4-3.77-3.151-5.178-1.161-4.664,3.378-2.569,5.261,8.273,3.293,7.747,6.461-.637,10.808,0,12.445,2.813,3.326,2.692,6.39-1.164,5.526-2.692,5.755-6.338-.615-6.109,2.219,6.109,4.347,6.109,4.347,4.1,3.874,2.692,5.632-4.383,4.7-2.692,5.756,5.435,2.2,5.207,5.386,1.76,12.091,0,12.8-8.7-.58-8.8,0,.175,5.792-1.233,6.743-4.8,1.391-4.1,3.521,6.215,3.519,6.215,5.052a22.824,22.824,0,0,1-2.113,7.867c-1.159,2.112-1.3,5.07,2.113,6.813s6.086-1.073,7.92,2.217,7.343,8.433,7.343,9.03,1.532,7.2,0,8.625-9.067,1.058-10.455,2.94-1.991,2.375-1.991,3.415,6.439,3.873,5.1,5.861-2.991,4.7-3.923,6.108a7.392,7.392,0,0,1-4.931,2.448c-1.055-.106-6.459-3.028-7.041-3.274s-2.339-3.75-2.814,0,.95,5.175,0,7.393-4,.229-4,3.4,5.528,1.408,5.528,9.628-1.53,9.153-1.53,10.561a5.172,5.172,0,0,1-3.168,4.332c-2.114.95-3.31,2.834-2.361,4.47s9.173-1.285,8.344,1.761-6.477,7.042-8.344,8.326-5.966,2.6-10.666-1.514a144.217,144.217,0,0,1-11.492-12.217s-11.373-3.642-13.732-.826a51.863,51.863,0,0,0-4.346,6.231s-8.292,4.277-11.688,4.4-20.171,3.662-25.1,2.412-7.147-6.406-6.918-8.573-13.52-11.319-14.328-11.319-6.812-.369-7.516-2.709,7.742-5.616,8.571-6.091,15.032-18.834,15.032-18.834a78.012,78.012,0,0,1,5.158-15.383c3.4-7.041,11.284-12.077,9.979-15.015s-5.931-.528-9.979-2.289-3.679-8.589-6.918-8.342-5.7-.458-5.7,1.883-3.874,10-4.454,11.512-1.655,2.325-3.114,1.744-.881-3.855-3.7-4.507-5.137-1.109-6.442,0-4.579,1.479-4.7-.879,3.4-7.869,3.4-7.869-1.231-20.489-.88-22.3,1.867-9.559,4.455-9.207,7.038.616,7.867-1.514,2.816-12.8,1.531-14.2-3.5-.458-3.749-3.4a5.532,5.532,0,0,0-2.587-4.226s-5.759-1.285-4-3.167,5.828-1.478,6.584-3.239-2.587-5.986-2.587-5.986-3.346-2.691-1.232-3.872,12.671-11.052,14.433-13.5,3.187-10.3,2.588-10.192-4.35-2.342-2.588-4.578,14.435-13.729,14.435-13.729S10877.589,7401.948,10879.929,7403.409Z" transform="translate(1317.127 5102.035)" fill="#32364f" stroke="#545870" stroke-width="2"/>
          <path id="Path_3269" data-name="Path 3269" d="M11113.939,7347.777c.96,1.086,11.369,11.834,11.369,11.834s9.514.5,12.1,2.591,7.5,2.861,7.5,2.861l21.117,21.617s21.424,16.783,22.2,18.331,7.782,5.741,8.011,8.909-.144,7.868.81,9.4,6.564,0,6.564,0,4.474-5.509,5.528,0,5.477,4.8,7.693,7.393,13.467,14.311,16.176,15.718,10.579-.353,14.451,3.521,19.944,19.117,21.351,19.944,4.7,3.555,3.872,5.3-6.916,7.853-7.744,10.316-4.205,11.282-4.8,12.214-3.979,2.554-5.282,1.743-8.593-10.226-9.753-8.8-6.228,6.8-12.091,8.8-15.841,3.416-17.831,4.12-5.262,2.342-5.033,3.749.475,7.729,0,9.383-4.454,5.3-5.281,6.229-6.232,1.885-8.925,1.761-7.867-1.883-8.22-4.347-1.408-7.517-1.408-7.517-6.11-9.135-10.211-9.259-8.817-1.531-10.33-2.939-6.038-13.361-10.97-12.78-33.425,2.675-37.42-7.288-4.225-13.957,0-17.831,5.986-6.566,6.215-10.209-3.116-3.713-3.821-6.108,4.825-3.8,3.821-7.446-10.914-14.028-10.914-14.028-7.147.6-10.562-2.693-6.6-4.806-4.471-11.616-1.461-23.967-1.461-23.967-9.628-10.006-9.5-12.471,1.511-4.471,0-5.4-6.233-.567-5.985-3.743,3.416-5.452,3.416-5.452v-11.834s1.462-3.032,3.572-2.329,9.962,3.538,9.962,3.538a44.278,44.278,0,0,0,6.813,1.039C11106.7,7350.025,11112.979,7346.691,11113.939,7347.777Z" transform="translate(1417.63 5097.434)" fill="#32364f" stroke="#545870" stroke-width="2"/>
          <path id="Path_3270" data-name="Path 3270" d="M11107.221,7363.667s8.395-8.666,10.289-8.761,8.219,1.069,8.762,1.164,5.214,3.535,4.591-1.706.894-11.645,2.708-14.447,7.771-6.958,12.375-6.051,12.951,3.187,15.521,6.051,7.87,2.618,10.211,2.741,6.934-.106,8.1-1.285,2.711-2.342,7.869-2.342,12.372-2.518,16.243-2.166,11.392,1.426,12.1,0,2.236-3.642,0-4.347-6.478-2.711-6.356-6.46,2.133-8.572,9.752-8.8a136.466,136.466,0,0,0,14.559-1.285s9.014-3.589,11.6-6.636,5.279-5.633,7.162-5.509a17.981,17.981,0,0,0,2.94,0s.581-3.767,3.75-4.471,9.4,2.711,9.4,2.711l15.895.757s4.436-3.275,8.556-2.571,7.056,1.621,7.638,6.32,6.671,12.443,6.917,14.2,1.515,3.979,0,4.929-14.18,14.667-14.18,14.667-1.161,2.711,0,4.47,4.8-.6,6.089,1.637,5.85,10.667,8.091,14.311,6.572,5.88,5.869,11.741-.425,23.779,0,27.176,4.065,9.137,6.759,12.075,10.562,8.116,10.562,12.921-7.023,8.2-7.622,12.427.914,8.555-1.3,9.154-6.9.246-7.5,1.53-1.656,10.175-2.712,11.213-2.57,3.4-2.342,4.805,1.636,6.214,0,6.918-4.7,0-4.7,0-2.921,7.974-5.861,7.393a84.6,84.6,0,0,1-8.325-2.464s-4.122-2.571-6.462-.933-1.987,3.4-1.987,3.4a16.855,16.855,0,0,1-.828,6.688c-1.179,3.063-1.035,4.225-4.8,6.108a20.369,20.369,0,0,1-7.642,1.988l-6.337-.809s-5.154-4.224-7.269-5.755-16.671-15.613-16.671-15.613-4.532-4.762-6.775-4.441-7.86,1.5-9.566-.744-15.406-15.624-15.406-15.624-3.792-1.555-5.232-3-1.452-2.339-2.2-4.7-2.3-3.749-3.685-2.2-1.818,2.2-3.741,2.573-4.752.914-5.232,0a14.585,14.585,0,0,1-.536-6.146,6.419,6.419,0,0,0,0-3.9c-.425-.7-4.037-4.518-5.528-6.064s-3.092-2.515-3.413-3.364-22.262-18.108-22.262-18.108l-17.406-17.842-2.352-3.2s-7.427-1.792-9.583-3.6-9.708-1.948-10.135-1.948-6.844-6.312-6.844-6.312l-3.822-4.239a9.046,9.046,0,0,1,0-2.083C11105.054,7365.06,11107.221,7363.667,11107.221,7363.667Z" transform="translate(1427.615 5078.384)" fill="#404563" stroke="#545870" stroke-width="2"/>
          <path id="Path_3271" data-name="Path 3271" d="M10949.4,7399.687c.553-.188,4.388-.7,5.919-1.409s16.668.934,18.076,0,1.884-.81,2.236-2.692-.685-5.053,2.236-6.461,3.978-3.644,5.385,0,4.085,5.879,5.862,5.755a16.155,16.155,0,0,0,6.935-3.168c1.163-1.178,3.852-3.873,5.156-2.587a5.017,5.017,0,0,1,1.3,4.577c-.353,1.285-.725,2.235-1.3,4.577s-.829,4.683,0,5.51,4.226.721,4.7,1.777,1.989,3.169,0,3.75-5.035,1.056-3.4,4.224,4.154,1.444,5.21,2.747,1.512,5.632,1.056,6.337-3.978.106-5.385,0-2.939-1.655-2.939,0-.479,2.727.754,3.185,2.662.334,2.186,1.392-3.046,1.161-2.939,4.223-.669,7.339-1.127,11.211a62.262,62.262,0,0,0,0,11.513c.245,2.34,7.036-.459,9.451,0s6.285-1.163,8.748,1.055,3.292,1.745,8.45,2.218,17.828,0,17.828,0a74.432,74.432,0,0,1,7.395-4.928c2.712-1.41,8.818,2.709,9.751,2.709s12.146,4.631,13.431,7.324,3.044,3.978,3.044,6.214.644,10.327,2.474,12.616,3.983,1.99,4.9,0,.867-6.223,2.722-3.958,3.549,4.416,3.226,8.078.117,7.184-3.226,8.694-3.8.458-5.172,1.833-.752,3.342,0,4.874,10.345,2.151,11.122,3.363,5.994,2.448,8.26,2.745,7.14-2.127,7.756-4.576,7.645-4.714,11.307-8.239,5.788-5.352,5.788-2.9-2.723,7.023-2.424,9.611,3.659,0,3.659,0,2.721,1.373,4.713,0,10.941-5.491,11.991-9.611,2.746-7.14,5.493-7.917,4.389-1.619,5.566.993a19.057,19.057,0,0,0,3.969,5.5c.635.54,3.36,1.61,3.98,0a20.372,20.372,0,0,1,2.165-4.364c.544-.593,4.6-.779,6.946-2.128s5.146-3.882,5.958-3.977,4.214.217,5.378,1.4a5.075,5.075,0,0,0,2.707,1.368s3.617-3.182,4.062-4.347,1.274-5.13,0-7.122-3.266-.813-3.169-2.979,2.979-3.074,3.79-5.24.543-2.327-2.437-6.58-8.261-10.116-8.261-10.116-7.471,1.545-10.911-2.612-5.687-4.156-5.241-7.406,1.354-12.43,1.354-16.573a81.643,81.643,0,0,0-1.354-11.319l-8.49-9.884a2.925,2.925,0,0,1-1.7-3.616c.717-2.709,2.9-2.979,0-4.6s-5.687.205-5.783-1.705-1.083-3.266,1.26-4.794a3.8,3.8,0,0,0,1.989-3.614V7368.3s2.072-2.246,3.426-1.8,11.565,4.062,13.732,4.78,2.868.812,4.682,0,7.408-2.979,7.408-2.979.8,1.718,1.57.75,1.042-2.438,2.292-3.333,8.541-7.206,9.656-7.978,3.676-.135,5.832,0a30.687,30.687,0,0,1,4.657.76s2.829,1.667,3.392.626.377-8.157.866-10.312,2.293-6.875,2.293-6.875-2.056-7.062-3.159-9.832,1.045-5.2-2.631-8.114-3.052-4.8-5.418-3.688-5.133,3.615-5.343,5.209-1.238,2.083-2.708,2.291a26.774,26.774,0,0,1-4.239,0s-3.739-2.218-4.927-2.291-2.867,1.449-3.97,2.844-2,2.3-3.6,2.646-6.6,1.041-6.6,3.958-6.1,7.562-6.1,7.562-23.311,13.79-31.082,16.008-17.037,2.082-21.485,0-5.146-4.791-6.666-3.126-2.991,4.375-5.28,6.531-8.852,2.562-11.354,1.8-13.332-2.743-15.5-1.8-3.983,1.659-4.875.846-2.533-7.392-5.415-6.675-2.791,2.071-3.426,3.425-.813,2.9-2.979,1.721-1.45-3.264-2.979-7.231-8.068-10.548-10.155-12.538-2.435-5.607,0-7.136,14.529-2.612,17.062-1.529,7.121,3.871,9.829,4.237,5.065-.366,5.335-2.708-6.594-4.78-6.594-5.321-1.841-.231-1.841-4.739-.636-13.985-.636-13.985-2.165-5.337-6.094-7.408-5.2-1.258-5.646-4.333-.544-4.683-4.063-4.507a17.137,17.137,0,0,0-6.31,1.61h-18.413s-3.807-.743-3.983,1.774,1.1,5.671-1.434,6.579-17.531,1.695-19.781,1.41-11.1-.366-15.07,1.8-19.16,12.078-23.776,15.788-6.243,3.628-10.034,5.065-10.386,5.971-11.007,8.76,2.939,11.454,1.042,13.174-15.707,17.075-17.6,18.239-5.862.893-6.5,4.683,3.441,6.243,3.249,8.22.813.989.813.989,8.57-1.26,10.2,0,6.4,2.031,4.875,3.48-4.51,3.168-4.875,4.874-2.032,4.332-1.762,5.862,1.686,3.518,4.021,2.948,4.674-.285,5.119.567S10948.854,7399.875,10949.4,7399.687Z" transform="translate(1349.599 5076.225)" fill="#404563" stroke="#545870" stroke-width="2"/>
          <path id="Path_3272" data-name="Path 3272" d="M10958.85,7495.722c.549-1.244,2.129-6.2,6.584-7.5s8.678.564,10.209-4.47,1.513-11.16,5.509-11.389,9.4,0,12.567-1.285,30.417-20.77,39.235-21.827,10.933-1.39,10.228-2.921-4-2.587-6.812-4.118-5.192-4.806-3.415-4.806,9.772.828,10.228,0,12.922-5.3,16.193-7.639,9.612-4.7,10.313-5.281,7.993-4.577,7.993-3.045.518,6.355,2.205,7.958,3.66,1.769,4.4,0,.2-4.605,1.479-4.913,2.632,1.337,3.082,2.4,1.973,3.008,1.85,4.524.056,7.024-.845,8.462-4.113,2.306-6.041,2.712a3.271,3.271,0,0,0-2.5,4.27,3.961,3.961,0,0,0,2.257,2.508s-1.9,5.86,0,7.038,4.453-3.2,5.311,0-.8,4.316-2.026,6.192-1.9,8.27-3.284,9.384-4.391-1.009-5.984,0-4.8,5.183-4.8,7.955a83.2,83.2,0,0,0,1.435,14.981c1.072,4.543,3.648,7.955,7.093,7.955s5.188-1.054,5.541,4.9a142.714,142.714,0,0,0,2.026,15.561c.776,4.736,1.283,7.849,0,10.137s-5.994,2.426-5.4,3.959,8.235,4.874,7.777,6.567-4.254,2.884-7.777,1.212-2.289-3.479-3.823-2.884-6.73,2.608-9.771,0-2.722-7.78-5.627-7.78-5.472-1.075-5.951,0-1.7,1.808-3.984,1.671-7.434.16-10.2-1.671-6.565-3.8-5.193,0,3.2,5.836,1.373,10.664-7.942,10.619-8.856,11.991-5.034,5.811-4.118,9.77c-5.036.755-5.333-1.075-5.333-1.075s-1.372-10.824-8.238-10.983-10.5,6.269-11.28,7.024-6.364,1.3-6.957,0-5.492-9.839-9.61-10.458-8.83-2.883-10.663-1.213-7.271,9.634-10.614,9.811-3.872.9-5.322-.635-3.6-3.427-4.605-1.26-1,4.875-2.9,4.875-5.319-3.593-6.134-1.12-9.356,12.563-11.062,13.631-11.443.638-12.538,0c1.977-3.25,3.274-3.325,3.4-4.558s.081-1.732-3.988-1.732-5.048.538-4.967-1.559,3.033-2.626,3.611-3.409,3.136-2.871,3.1-6.129,1.583-9.586.6-12.218-3.815-3.706-4.6-4.481-1.437-2.933-.246-3.3,3.938-.495,3.938-1.851-.616-5.606-.616-5.606-.582-3,.616-3.206,2.632,1.355,2.632,1.355,5.626,4.228,7.271,3.778a10.867,10.867,0,0,0,5.019-3.494c.775-1.269,3.381-5.275,3.381-5.275a2.341,2.341,0,0,0-1.1-2.711,16.876,16.876,0,0,1-3.373-2.466,1.2,1.2,0,0,1-.491-1.689c.529-1.225,1.877-3.037,3.117-3.365s7.808-1.6,7.808-1.6,1.5.505,1.788-1.628a26.684,26.684,0,0,1,1.813-6.859c.775-1.516,4.595-4.191,4.595-4.191S10958.3,7496.965,10958.85,7495.722Z" transform="translate(1349.762 5128.748)" fill="#32364f" stroke="#545870" stroke-width="2"/>
          <path id="Path_3273" data-name="Path 3273" d="M10923.262,7579.612c-2.487-.339-3.985-4.166-4.966,0s.179,8.3-5.952,9.7-8.149-1.009-7.138,2.381,2.765,10.5,0,10.322-5.116-1.4-6.725-1.992-6.157-3.569-5.561,0,5.561,5.145,5.561,10.709-1.189,5.562-1.992,9.727,1.218,4.164,1.992,5.949-1.3,11.517-3.286,15.635-.434,11.865-2.274,13.854-2.409,2.234-2.3,4.576,1.552,4.225-1.284,5.985-11.037,4.576-12.8,4.929-3.661.6-2.708-2.342,1.988-7.059,0-7.517a2.322,2.322,0,0,0-3.049,2.113c-.228,1.3.477,6.707-6.212,6.812s-5.63-2.129-7.745-3.995-3.645-4.93-2.818-5.985,4.7-3.854,2.818-5.51-7.164-.474-7.164,0a3.654,3.654,0,0,1-5.052,2.288c-3.4-1.407-4.806-5.51-7.271-5.984a4.1,4.1,0,0,0-3.873,1.285s.249,6.461-1.988,6.69-6.107-1.761-7.163-1.99-3.293-2.463-4.349,0,.5,2.922-2.447,3.222-2.957-1.567-5.877-3.222-12.853,0-12.853,0l-3.624-4.7s2.892-1.185,2.971-2.786-.548-6.33-.264-7.315a6.621,6.621,0,0,1,2.667-3.618c1.807-1.357,7.889-3.734,7.519-7.846s.538-5.2,1.233-7.376,3.574-4.554,3.408-6.57-.421-4.155-3-4.481a28.682,28.682,0,0,0-6.445,0c-.246.124-3.285-2.86-2.836-4.543s4.149-6.821,4.686-8.627a16.653,16.653,0,0,0,.654-7.271,20.2,20.2,0,0,1,0-7.274c.374-1.188,3.57-5.016,4.6-6.575s2.922-4.085,2.016-7.986-.968-7.828-1.338-9.185-2.446-9.516-3.759-11.488-4.993-6.509-4.993-6.509-2.21-2.58-2.132-4.763,2.712-6.662,2.712-6.662,6.1-8.833,8.4-14.008,2.482-9.589,2.854-12.838a13.053,13.053,0,0,1,2.879-6.657c1.065-1.477,4.859-5.577,5.274-7.542s0-7.229,0-7.229a8.17,8.17,0,0,1,2.366-5.628c2.424-2.218,8.629-7.358,8.629-7.358s11.2-1.373,12.018-1.5,4.007.332,4.377-1.436,1.4-3.292.535-4.234-5.264-1.355-5.264-1.355v-5.4a3.711,3.711,0,0,1,2.034-1.646,16.264,16.264,0,0,0,3.821-2.139c.66-.574.871-.493,2.8-1.436s4.747-2.384,5.812-5.835,2.578-8.628,4.84-8.993,4.252-.719,5.512,0,2.265,1.8,2.17,2.79-1.086,10.54-2.17,12.039a4.8,4.8,0,0,1-4.252,2.313c-1.977,0-2.786-1.625-4.411,0s-4.349,8.2-4.254,10.737,1.76,17.927,1.76,19.079-4.338,8.341-3.855,9.462a2.323,2.323,0,0,0,3.364,1.018,6.935,6.935,0,0,1,4.063-1.018c1.923.057,4.912-.312,5.552,1.018s1.386,3.309,2.188,3.951,1.394.743,2.459-.7a51.638,51.638,0,0,0,4.488-9.5c.425-1.763-.633-3.439,1.016-4.23s5.736-.736,5.736-.736a3.831,3.831,0,0,1,2.092,1.773c.534,1.244,2.444,5.219,3.488,6.214s5.374,1.721,6.519,1.335,3.207-.276,3.986.792,1,2.211-1.922,5.494a103.184,103.184,0,0,0-7.1,8.941c-1.151,1.724-5.258,14.464-5.382,15.117a2.931,2.931,0,0,1-.881,2.2c-.86.733-14.342,18.119-14.342,18.119s-6.08,2.544-7.517,3.98-1.028,2.256-.493,3.162,7,1.365,7,1.365,7.165,4.9,7.581,5.18,5.294,3.939,5.583,4.508,1.076,1.071,1.076,2.086,1.295,5.409,3.413,6.955,5.562,2.134,12.865,1.186,14.949-1.85,14.949-1.85a34.2,34.2,0,0,0,3.778-1.2c.581-.347,2.415-.129,2.951,2.119a15.806,15.806,0,0,0,3.321,5.879C10925.516,7577.029,10925.75,7579.951,10923.262,7579.612Z" transform="translate(1299.602 5134.92)" fill="#404563" stroke="#545870" stroke-width="2"/>
          <path id="Path_3274" data-name="Path 3274" d="M10558.428,7520.841c-2.161,6.391-.162,8.029-2.425,8.666a6.89,6.89,0,0,1-5.606-1.272c-.812-.719-5.6-2.871-7.676-1.069s-8.379,8.1-9.018,8.921-5.141,3.289-3.908,3.949,5.3,1.855,5.343,3-3.124,2.829-3.2,4.352,4.547,5.263,6.372,5.017,4.415,1.146,4.415,1.146h0s-.985,2,0,2.817,6.9,2.242,7.676,3.308.952,1.834,1.771,1.587,3.5,1.206,4.57,2.155,4.429,1.023,4.429,1.023,4.468-.708,4.626,1.468-2.389,4.08-3.334,5.065a8.094,8.094,0,0,0-1.618,4.911c0,1.727.326,9.694.326,9.694s4.517,16.431,6.655,18.612,14.744,20,16.08,20.9,7.85,4.543,7.85,4.543.54,2.026,1.34,1.385,4.862.192,5.148.6,4.076.826,5.563.508,5.754-1.385,5.72-2.717.145-4.315,0-5.485,1.187-1.864,1.882-1.864,6.083.233,6.083.233,5.235-5.666,5.866-7.06,1.956-3.958,2.208-4.84,7.888-5.656,8.709-6.32,3.761-1.74,4.171-1.138a7.915,7.915,0,0,1,1.456,4.206c.029,1.992-.076,4.181,0,5.669s2.763,3.324,3.9,3.513a8.13,8.13,0,0,0,2.973-.412l16.48.412a3.657,3.657,0,0,1,3.318,1.986c1.077,2.119,2.4,3.508,3.318,3.6a35.656,35.656,0,0,0,4.93-.724s4.665-5.832,5.613-6.97,15.755-11.8,15.755-11.8a8.968,8.968,0,0,1,1.7-2.019,8.386,8.386,0,0,1,4.4-1.74c1.641-.066,3.824-1.234,4.865-.475s2.593,1.864,2.593,1.864-1.294-3.7-.726-4.518,2.445-.751,2.731-1.537,2.435-6.225,2.435-6.225l-3.478-6.053s-1.357-2.4-2.906-2.494-8.141-2.3-10.289-4.538-3.82-5.353-2.746-7.437,3.967-2.507,4.976-2.243a16.568,16.568,0,0,1,2.508,1.018,2.266,2.266,0,0,1,1.119-3.1c2.141-1.178,4.329-2.452,7.854.7a7.913,7.913,0,0,0,7.854,1.385s4.635.481,5.71-.744,2.839-1.707,4.862-1.707,13.2,3.068,13.2,3.068,4.951,1.762,6.243,2.883,5.393,1.539,7.266,1.331,7-.632,7-.632-.412-6.856,2.386-8.372,4.517-2.373,5.545-3.444.492-3.162-.37-4.561-2.692-.969-2.9-2.49-.2-2.386,1.935-4.068,4.474-2.914,4.229-4.887-2.447-4.364-2.9-5.264a9.662,9.662,0,0,1,0-5.09c.457-1.108,6.778-3.943,6.778-3.943s6.909-2.27,7.688-3.292,1.476-2.668,2.586-3.038a13.526,13.526,0,0,1,5.011-.327c.7.284-.456,3-.369,4.191s.378,4.183,2.676,6.12,4.843,3.081,6.691,2.588,5.013-.819,4.563-2.3-1.807-6.121-2.175-6.9-2.59-1.232-3.249-2.218-1.639.123-1.066-1.48,2.713-2.174,3.945-2.835,3.53-5.2,3.53-5.2-5.627,2.959-8.137,1.153-6.894-1.965-8.213-4.966a20.121,20.121,0,0,1-1.69-5.917c.046-.209.908-9.553-.449-12.677s-4.836-3.567-5.338-6a96.063,96.063,0,0,1-.7-9.781s-3.3-2.2-3.3-5.115-.528-5.338,0-7.353a15.741,15.741,0,0,1,4.6-6.743,11.262,11.262,0,0,0,2.794-2.914,18.056,18.056,0,0,1-3.444-2.922c-1.479-1.682-12.562-6.341-13.215-6.755s-8.458-.093-11.007-1.442a14.943,14.943,0,0,1-4.314-3.654,4.187,4.187,0,0,1,.345-3.76c1.188-2.008,2.226-3.951,1.688-5.713s-6.838-8.691-9.717-10.619-9.294-1.35-12.044-.653-5.744.457-7.187,2.834-5.547,4.228-5.547,4.228-5.318-1.263-5.732-4.228-1.521-7.722-3.617-7.686-32.094-2.4-35.454-1.809-12.385,4.576-15.179,5.349-15.438-3.808-19.425,1.964,1.217,11.513-1.786,14.488-5.131,6.114-7.912,6.678-9.79-.687-10.207,1.948.971,3.75,2.843,5.76.293,4.927-.761,6.666-4.656,1.709-7.779,4.551-3.74,4.521-4.3,4.583-15.226,2.1-16.468.7-4.372-6.887-5.76-9.312-7.646-5.864-10.207-5.1-3.478.416-3.751,0-8.038-8.322-8.6-8.811-.785-2.23-3.345-.98-10.771,9.729-10.209,11.53,5.835,4.167,5.835,4.167,8.385,4.135,7.823,7.812-.295,10.623-1.188,12.217-5.042,10.271-6.011,12.427-9.717,4.458-7.842,8.133,2.7,2.844,3.467,5.136S10560.589,7514.45,10558.428,7520.841Z" transform="translate(1189.817 5124.086)" fill="#404563" stroke="#545870" stroke-width="2"/>
          <path id="Path_3276" data-name="Path 3276" d="M11017.484,7429.454h-12.217s-1.635-1.056-1.635-2.113-7.04-.581-9.63,0-8.1,1.761-9.03,0-4.7-8.8-4.7-9.382-3.993-2.007-3.993-2.007-1.284-3.748,0-6.443,5.4-6.106,5.174-6.811,0-7.27,0-9.505-5.985-10.492-10.56-11.917-11.865.949-14.206,0-7.043-4.455-10.914-5.387-12.2,3.521-22.529,5.387-32.038.7-34.5,0a24.464,24.464,0,0,1-6.793-2.571c-2.568-1.514-23.955.476-26.405,0s-26.649-7.041-26.649-7.041-8.2-1.882-11.37-4.119-4.822-3.273-7.745-10.085-11.919-12.674-13.1-14.082-17.478-4.454-20.772-6.108-12.725,2.993-15.312,2.535-9.258-.7-12.2-4-16.9-3.873-16.9-3.873l-6.814-3.749s-5.859-9.505-5.279-14.68-1.689-23.993-2.166-26.458-6.687-5.033-9.4-8.677-1.638-5.757-1.638-5.757-.467-9.27-6.518-5.831-10.739,10.718-12.187,11.588-13.458,8.677-13.458,8.677-8.489,1.079-10.021,0-3.41-6.413-8.109-5.6-8.938,5.6-8.938,5.6l-30.886,13.044s-6.754,2.073-8.92,2.344.093,1.542,0,4.156,2.61,4.428,2.516,5.782.623,4.332,1.083,6.675,7.325,8.206,7.773,9.384-5.8,6.687-6.962,7.5-2.354.636-3.249-1.353-2.976-4.794-4.506-3.346-2.451,5.245-2.8,8.871,6.767,10.9,7.307,12.429,2.425,9.628,4.415,9.628,3.494-6.936,5.8-7.165,10.626,2.57,12.158,0,6.812-6.09,10.332-6.918,5.654.459,8.573,1.638,11.143-1.515,13.607-1.638,7.726,5.633,10.438,4.455,8.325-3.749,10.562-4.455,0,5.756,0,7.746-3.979,6.583-5.386,7.744-3.415.828-7.287,0-6.216.828-8.326,1.057-3.645-1.057-7.166-1.057-8.077-.58-9.257,1.057-14.857,13.869-18.731,17.02-.7,11.038-1.986,13.256a8.761,8.761,0,0,1-4.119,4.1c-1.988,1.057-12.226-.457-13.622,1.532s-.723,6.743-1.674,8.5-6.564,4.823-8.1,4.823-4.842,2.324-5.651,3.626.246,2.939-3.98,2.816-11.862-2.128-13.852-4.7-4.349-3.414-4.93,0,4.384,14.715,9.56,16.37,17.249,1.18,17.249,1.18,4.346-1.515,5.175,3.643,2.94,8.326,8.573,10.791,8.656,2.006,8.554,3.292,1.583,10.314,1.934,13.607,5.286,7.867,4,15.612" transform="translate(1206.565 5064.645)" fill="none" stroke="#545870" stroke-width="2" opacity="0.3"/>
          <path id="Path_3277" data-name="Path 3277" d="M10507.281,7771.845s-.271,6.214,1.895,6.946,7.107-.625,5.5,1.718-10.273,6.04-12,6.406-2.611,3.791-2.611,5.781v2.708s-6.908-1.139-7.449,0,1.434,2.571,1.434,4.738,1.627,5.161,1.9,5.876,4.158,2.358,5.514,0,3.5-1.72,3.424-1.273-.639,4.321,0,5.863,3.248,1.991,3.248,1.991,5.5.46,4.063,1.178-5.4.828-5.5,1.99-1.734,2.884-3.441,1.531-1.973-6.431-4.779-6.69-2.627,2.9-2.531,3.887-1.273.636-2.707,0-6.5-2.249-7.217-.718-1.258,5.875,0,6.769-1.08,15.07,0,19.172,5.732,15.965,7.217,16.668,6.412,3.537,4.072,4a9.939,9.939,0,0,1-4.072,0,40.837,40.837,0,0,0,0,5c.191,1.52-2.92,6.6-1.879,9.791s1.633,8.9,2.32,10.092,4.654,1.4,3.334,2.989-5.283,1.458-3.334,3.616a7.264,7.264,0,0,0,4.926,2.156s8.107,7.146,9.416,9.3,5.125,6.321,6.24,5.208,1.469-4.458,3.268-3.48,2.855,5.427,1.949,5.771-1.457,2.7,0,3.6.885,3.133,2.072,6.811,3.283,6.8,2.1,7.009-4.854-.624-5.623-2.916.623-2.227,0-6.321-1.387-4.915-5.076-6.031-7.363-1.874-7.572-2.156-3.549-6.259-5.9-5.771-1.6,5.906-1.523,7.021-4.937,2.209.656,4.854,6.7.771,6.77,3.271,1.129,6.792.586,8.049-4.328,1.528-2.164,5.5,3.615,4.7,3.615,4.7-1.178,5.768.813,7.935,6.469,1.178,4.723,2.438-7.254.906-4.723,4.061,7.936,4.876,7.936,4.876-4.9,1.138-4.186,3.75,3.857,3.44,4.186,4.158,10.559,29.991,11.467,32.076,3.17,4.266,2.629,5.971-4.957,1.529-5.145,2.343.852,6.594,3.83,11.374,3.262,6.595,4.969,6.5,6.6-1.354,5.145.813-3.506,3.806-5.145,3.886-7.326.175-6.283,2.612,11.293,7.543,11.428,12.052,0,7.723,0,7.723-.3,5.15-.781,5.979-1.408,1.777,0,2.712,5.719-.123,6.09.932-.723,9.5,0,10.562,3.514.766,3.586,1.6,1.25,6.8,0,5.55-2.281-3.821-5.135-3.749-2.914,2.364-2.291,3.749,3.73,2.907,3.84,3.262,2.637,7.031,3.2,7.926a19.337,19.337,0,0,1,1.6,6.239c.135,2.084,1.445,7.645,3.395,10.146s3.125,4.03,3.125,4.03.344,7.353,0,7.77.43,1.334-.895,1.6-4.437-.343-4.584.418a5.448,5.448,0,0,0,.449,3.01c.414.624,5.4.021,5.029,1.469s-2.385,6.028-1.7,6.935,2.854.22,2.779,2.365.658,7.042-.457,7.251-2.133,3.4-1.52,4.519a4.842,4.842,0,0,0,1.977,1.74,16.941,16.941,0,0,0,0,7.7c1.043,3.553,3.742,3.051,3.605,5.7s-2.646,3.613-2.709,3.958,1.918,7.041,2.053,12.114,3.26,8.831,3.26,9.52,5.074,2.156,4.168,4.864-2.146,3.54-3.051,3.675-3.648-1.6-4.137.76a3.244,3.244,0,0,0,1.457,3.75c.416.073,4.73,2.239,4.52,4.1a2.311,2.311,0,0,1-3.123,2.146c-1.531-.416-3.49-2.855-3.553,0s1.885,6.729,2.854,8.75,6.875,16.4,6.875,17.018,3.795.272,2.262,4.021,1.176,9.165,1.176,9.165,5.98,9.125,5.906,12.946,2.832,6.69,2.9,10.637,3.762,8.687,3.479,13.123-1.145,9.227,0,10.478,4.211.687,3.928,2.427.9,9.311,1.73,11.737,3.2,4.3,3.82,4.93,12.053,2.29,13.438,8.2,6.25,11.529,6.25,12.154,3.832,4.23,3.4,9.021,4.031,6.81,4.094,7.154,2.719,2.426,4.031,0,2.914-3.738,5-4.02,11.52,1.531,14.645-2.154,4.168-3.9,5.832-8.406,1.459-4.3,3.959-3.543,2.959,7.146,2.885,9.094-.562,3.344.553,3.895,6.469-.955,7.645,1.115,6,9.063,6,9.063-4.031,3.945-1.533,7.561,6.887,6.4,8.135,6.531,7.846,0,9.928-2.292,6.188-.417,5.7-5-2.721-1.8-2.646-4.167,1.947-1.447,3.406-2.634,1.322-.835,2.084-4.656.428-.7,3.2-3.614,4.154-5.49,5.27-5.8,5.7-2.875,5.906-.657-1.812,7.23,2.01,8.063,9.7-2.062,13.51-4.49,5.061-5.845,7.426-7.29,4.924-2.5,4.373-7.219-2.5-3.271-2.844-6.041.074-4.853.906-4.926,9.539-7.9,10.791-12.427,1.387-11.686.969-13.343-.332-3.738-2.77-3.6-8.945,1.385-8.99-1.114a5.617,5.617,0,0,1,1.938-4.376c.729-.832,2.4-5.2,5.521-3.26s8.268,3.823,9.029,3.75,4.928.687,4.584-1.531-1.742-3.406-2.156-3.406-2.814-4.4-2.428-8.571,2.875-13.187.791-15.135-6.162-2.782-6.654-2.782-5.9,1.127-6.947.772-1.949-1.812-1.74-3.9-1.236-3.958-1.937-3.333-2.3,3.677-4.592,3.333-4.572-2.011-4.572-3.333-1.248-5.384,0-7.676,3.668-4.02,4.572-6.521,1.238-5.979,0-7.155-13.84-10.446-13.84-10.446-3.762-.146-3.762-2.99-.211-5.54,1.738-5.687,4.789-.5,5.207,1.032,1.74,3.83,2.99,3.27.824-3.552,2.561-5.563,4.158-3.812,5.105-1.8.789,4.875,4.688,3.062,8.477-3.238,8.686-7.54-.01-8.2,2.844-8.75,7.645-.771,10.488.833,8.926,11.145,9.969,13.509,1.18,3.54,4.094,1.176,2.02-5.477,4.447-5.966,5.457-.461,8.018-4.137,4.93-9.238,4.646-13.955-.488-8.947,0-9.093a86.768,86.768,0,0,0,10.344-2.041c4.225-1.284,10.438-4.313,12.549-3.627s7.516,7.5,10.334,3.627,3.379-4.085,1.162-8.2-4-5.881-2.344-7.992,12.324-5.616,13.5-9.964-.369-6.793.934-7.746,15.127-.826,15.959.5a70.036,70.036,0,0,1,3.186,7.249c.834,2.061,3.332,2.467,7.914,3.028s1.73,4.573,5.625,5.345,8.959-1.811,10.492-3.333,3.768-2.812,3.289-7.322.01-6.446,1.395-6.729,7.7.541,10.342-1.053,7.623-4.633,10.762-4.569,7.842-.491,9.863,1.384,5.145,1.938,7.154,1.938,5.637-6.968,8.2-7.249,5.625-.405,5.625,1.323.762,2.977,3.262,4.436,4.863,1.791,5.832,1.49,2.426.237,2.426-2.949-1.531-13.414,0-14.445a4.809,4.809,0,0,0,2.291-4.582c0-2.354.877-4.854-1.834-7.147s-4.873-2.069-4.936-4.926-1.529-5.687,0-6.873,4.73-7.854,3.2-11.188-7.439-2.853-7.574-4.79-.283-5.552,0-5.968-4.479-2.113-5.031-4.687.209-7.156,1.25-7.989,3.26-2.99,3.781-5.417-.1-8.664,2.4-8.6,9.043,10.072,12.229,10.207,6.6,1.094,8.539-.427,2.992-1.584,4.168,1.051,2.146,6.166,2.77,6.521,4.75,1.417,6.145-1.22,4.387-6.112,6.4-6.352,3.8-.459,3.531,1.771-.346,6.956.771,8.687,5.07,4.864,5.07,4.864,6.7,1.354,10.656-1.563a15.026,15.026,0,0,1,9.092-3.3c1.74.03,1.313,3.79,3.541,3.3s2.979-.29,2.707-4.176.492-15.257,2.711-14.155,2.5,4.656,2.914,7.5,4.461,8.384,5.146,8.737,4.082-1.146,7.07-4.2,4.324-7.134,6.471-4.539,1.164,5.021,1.311,6.655a5.383,5.383,0,0,0,3.063,4.624c2.354,1.312.416-3.208,5.344-2.542s1.447,1.156,7.217,2.542,10.729,1.554,11.354-2.542,1.885-6.165-1.937-8.737-8.416-4.792-9.416-8.822-2.385-5.354-.582-7.156,6.771-5.031,4.82-8.571-6.664-6.25-6.873-6.875-2.844-4.646,0-4.165,5.209,2.5,6.873,0,7.518-6.113,9.957-7.364,9.863-.687,9.729-2.771-1.8-1.334-2.08-4.312-1.459-3.261,0-4.167,3.82-.874,6.039-4.343,2.561-5.769,3.676-5.623,2.084,4.436,3.2,5.623,2.99,4.656,3.541,1.949-.76-3.687.623-6.739,1.449-5.271,2.844-3.677,2.008,3.688,4.51,6.32,5.844,4.23,5.844,4.646-.488,3.9.969,4.729a3.475,3.475,0,0,0,5.209-1.458,11.712,11.712,0,0,0,1.875-7.29c-.074-3.126-.771-6.813,1.176-7.574s6.574.181,7.541-3.362a10.96,10.96,0,0,0-.906-8.333c-.969-1.4-2.363-2.855-2.156-4.447s-1.113-3.541,1.457-3.541,5.615,2.655,8.26,4.937,5.283,2.834,7.99,1.449,3.893-2.022,4.938-4.583,2.5-20.006,2.336-26.253-4.414-14.21,0-17.094,11.738-1.968,15.4-2.426,5.787-2.77,7.32-3.82,8.16-1.453,8.607-4.161.189-3.982,3.346-6.323,13.459-8.286,15.977-9.017,3.523-.2,3.793-4.889-.27-14.639.717-16.248,4.6-6.392,7.041-6.311,7.838,2.518,9.383,4.779,2.8,3.36,1.719,6.148-1.205,8.921.773,9.559,3.346.177,6.229,3.7,4.7,6.513,7.854,6.958,5.85-4.886,10.82-5.605,6.686.991,8.582-1.353,5.863-2.344.988-5.865-7.758-2.246-8.3-5.049.189-5.321.906-5.417,7.527-1.706,7.393-7.04-4.293-6.431-3.658-8.584,2.711-1.452,5.146-5.052.813-4.875,3.521-6.228,2.629,0,7.232,0,9.436-4.007,10.7-8.165,1.621-10.832,3.693-15.436,8.561-7.488,10.371-9.75,4.7-7.892,5.242-11.779,2.262-5.862,4.158-6.133,5.971-1.882,9.844-3.251,5.861-2,2.07-5.159-20.258-14.486-23.7-17.1-5.877-3.783-6.295-6.564-1.043-4.738.9-6.259,3.963-1.74,4.584-5,.49-4.374,1.533-4.926,4.08,4.447,6.1,2.781,3.209-12.291,3.479-14.655-1.416-3.126,1.146-7.009,8.109-4.521,6.52-7.229-6.1-.478-6.52-2.771-.012-3.542,1.727-4.448,12.5-6.654,16.113-6.311a9.674,9.674,0,0,1,8.26,6.935c1.115,3.958-.062,6.8,2.854,6.041s3.959-4.956,8.26-3.78,3.887,5.54,8.051,4.333,7.781,1,8.613-3.229-1.25-7.292-1.25-8.75-.385-11.487,2.813-16.278,4.447-6.114,8.613-6.114,7.072,1.052,7.561-3.6-1.291-16.9,1.148-22.811,8.883-10.831,8.748-17.081-3.354-11.217-4.332-16.217-5.209-17.62-4.049-18.078,15.49,13.009,16.07,13.605,5.965,4.243,9.734,2.007a35.879,35.879,0,0,1,15.789-4.4c5.158,0,10.316,1.18,12.9,4.4s3.045,5.455,5.635,4.628,5.857-5.031,11.262-2.163,10.266,3.573,10.266,4.276,2.6,10.086,2.48,12.673.105,5.545,2.693,7.64,13.254,4.1,15.719,5.158,6.232,3.626,6.936,6.794,2.588,5.985,4.574,2.94,5.158-8.8,8.68-11.5,13.887-3.89,17.656-4.471,6.211-.917,7.744,1.074,3.17,6.794,6.813,6.794,12.8-1.743,15.137.828,4.6,6.582,9.279,8.8,8.553.812,9.256-1.53.953-3.769,4.471-2.94,7.445,8.413,11.2,6.759,4.242,1.163,6.107-3.818,1.533-7.323,4.932-7.27,6.789,3.45,9.73,1.108,4.684-4.56,7.043-4.806,6.338-2.586,8.1-1.881,5.072,4.682,5.176,7.621,2.322,8.94,5.385,9.047,11.586-2.533,14.506,4.631,7.148,13.361,6.566,17.832-.354,11.16-2.939,13.5a22.02,22.02,0,0,0-5.738,7.744c-.828,2.342,0,7.746,0,7.746s1.707,6.055,0,6.987-10.756,1.883-12.395,7.746-3.059,9.259,2.7,10.085,11.385,0,12.566,1.532,1.162,10.6.932,14.011.811,2.8,1.938,4.931,1.811,5.861.879,8.219-9.01,8.555-7.85,11.618a23.669,23.669,0,0,0,6.971,8.748c1.936,1.179,5.576-4.1,7.568,0s12.674,12.11,18.078,13.5,13.15,2.235,15.49,0,7.955-2.359,10.666-4.472-2.1-4.207-.811-7.27,7.518-2.834,10.211-7.286-.811-12.761-4.1-17.232-5.775-6.249-4.119-10.756,2.939,1.232,2.588-6.036-4.33-6.461-.934-9.506,5.984-.879,9.029-7.094,1.74-5.508,4.453-10.737,1.039-8.15,1.285-10.737,4.348-3.063,5.881-4,11.635-16.264,13.854-21.245,10.313-9.189,10.666-8.027.457,11.266.934,12.2,1.3,3.521,4.117,3.168,8.8-4.1,10.211-1.285,4.348,11.986,8.924,9.98,3.273-8.8,7.975-11.036,10.105-5.739,7.869-9.382-7.182-5.4-7.059-6.812,5.049-2.709,6.105-1.883,7.744,5.879,9.152,3.292,3.521-9.293,3.295-13.623-2.445-7.957-4.455-8.2-13.48-9.7-17.6-10.86-13.148-3.52-13.148-3.52-2.363,3.766-2.59-1.638-.332-12.3-1.865-15.72-8.57-3.887-11.863-7.638-5.51-5.756-5.51-7.042.949-8.624-4.1-6.741-7.412,3.063-7.287,4.225.475,6.459,0,6.689-2.588-1.074-4.576-1.654-7.869-.459-7.395-2.519,6.691-.879,7.395-2.516,4-6.2,5.406-9.382,2.277-4.391-2.105-4.127-10.92.416-10.7-2.252,1.893-9.718,5.945-7.8,9.336,10.039,11.209,7.051,3.477-5.72,3.637-7.051-2.219-12.315-.561-18.988,1.443-10.687-1.6-13.516-7.691-4.6-9.293-3.524-3.848,4.966-7.211,4.061-7.2-1.994-7.156-6.593-1.338-9.5,1.49-11.8,1.762-3.751,6.627-2.572,14.475-6.585,16.023-8.621,10.5-1.547,10.5-4.327-1.18-6.041-3.848-9.406a15.027,15.027,0,0,1-2.723-9.021c.162-.433,2.813-17.891,3.342-21.472s2.184-11.016-.7-12.13-5.861-1.658-6.832-.424-4.053,6.3-5.768,6.833-6.2,2.563-7,0-3.895-3.3-1.387-5.5,15.168-4.638,14.848-8.116-4.184-20.752-4.777-28.236,2.586-11.418-1.68-14.028-5.457-.937-11.111-3.979-4.6-7.918-3.982-12.5-2.383-17.413,0-22.745,9.063-8.993,10.137-8.993,7.461-1.214,15.1-7.323,8.4-21.968,8.4-21.968-8.561,11.9-12.357,7.322-2.723-4.6-9.289-8.4-11.967-1.073-14.873-4.576-7.781-9.909-12.061-14.027-10.23-11.305-10.23-11.305-19.492-15.08-26.223-11.578-10.982,10.8-15.1,12.952-5.2,3.5-9.477,2.448-5.672-5.194-9.311-2.448-2.748,5.95-7.623,6.11-8.238-2.381-13.57-7.484-.91-6.91-14.182-3.57-17.234,6.248-18.766,7.392-9.523.9-9.523.9" transform="translate(1171.496 5080.883)" fill="none" stroke="#545870" stroke-width="2" opacity="0.3"/>
        </g>
        <text id="Thane" transform="translate(11652 12698)" fill="#f9f9f9" font-size="16" font-family="Planer-Regular, Planer" opacity="0.5"><tspan x="0" y="0">Thane</tspan></text>
        <text id="Nashik" transform="translate(11826 12601)" fill="#f9f9f9" font-size="16" font-family="Planer-Regular, Planer" opacity="0.5"><tspan x="0" y="0">Nashik</tspan></text>
        <text id="Aurangabad" transform="translate(12019 12600)" fill="#f9f9f9" font-size="16" font-family="Planer-Regular, Planer" opacity="0.5"><tspan x="0" y="0">Aurangabad</tspan></text>
        <text id="Buldhana" transform="translate(12188 12552)" fill="#f5f5f5" font-size="16" font-family="Planer-Regular, Planer" opacity="0.4"><tspan x="0" y="0">Buldhana</tspan></text>
        <text id="Washim_" data-name="Washim " transform="translate(12320 12615)" fill="#f9f9f9" font-size="14" font-family="Planer-Regular, Planer" opacity="0.5"><tspan x="0" y="0">Washim </tspan></text>
        <text id="Jalna" transform="translate(12128 12711)" fill="#f9f9f9" font-size="16" font-family="Planer-Regular, Planer" opacity="0.5"><tspan x="0" y="0">Jalna</tspan></text>
        <text id="Ahmednagar_" data-name="Ahmednagar " transform="translate(11882 12744)" fill="#f9f9f9" font-size="16" font-family="Planer-Regular, Planer" opacity="0.5"><tspan x="0" y="0">Ahmednagar </tspan></text>
        <text id="Amravati" transform="translate(12389 12455)" fill="#f9f9f9" font-size="16" font-family="Planer-Regular, Planer" opacity="0.5"><tspan x="0" y="0">Amravati</tspan></text>
        <text id="Wardha" transform="translate(12575 12528)" fill="#f9f9f9" font-size="16" font-family="Planer-Regular, Planer" opacity="0.5"><tspan x="0" y="0">Wardha</tspan></text>
        <text id="District" transform="translate(11655 12713)" fill="#696d83" font-size="12" font-family="Planer-Regular, Planer" opacity="0.5"><tspan x="0" y="0">District</tspan></text>
        <text id="District-2" data-name="District" transform="translate(11831 12616)" fill="#696d83" font-size="12" font-family="Planer-Regular, Planer"><tspan x="0" y="0">District</tspan></text>
        <text id="District-3" data-name="District" transform="translate(12038 12615)" fill="#545870" font-size="12" font-family="Planer-Regular, Planer"><tspan x="0" y="0">District</tspan></text>
        <text id="District-4" data-name="District" transform="translate(12200 12567)" fill="#696d83" font-size="12" font-family="Planer-Regular, Planer"><tspan x="0" y="0">District</tspan></text>
        <text id="District-5" data-name="District" transform="translate(12327 12631)" fill="#696d83" font-size="12" font-family="Planer-Regular, Planer"><tspan x="0" y="0">District</tspan></text>
        <text id="District-6" data-name="District" transform="translate(12127 12726)" fill="#696d83" font-size="12" font-family="Planer-Regular, Planer"><tspan x="0" y="0">District</tspan></text>
        <text id="District-7" data-name="District" transform="translate(11906 12760)" fill="#696d83" font-size="12" font-family="Planer-Regular, Planer"><tspan x="0" y="0">District</tspan></text>
        <text id="District-8" data-name="District" transform="translate(12402 12471)" fill="#696d83" font-size="12" font-family="Planer-Regular, Planer"><tspan x="0" y="0">District</tspan></text>
        <text id="District-9" data-name="District" transform="translate(12581 12543)" fill="#696d83" font-size="12" font-family="Planer-Regular, Planer"><tspan x="0" y="0">District</tspan></text>
      </g>
      <g id="Group_917" data-name="Group 917">
        <rect id="Rectangle_3338" data-name="Rectangle 3338" width="20" height="20" rx="10" transform="translate(1174 942)" fill="url(#radial-gradient)"/>
        <rect id="Rectangle_3338-2" data-name="Rectangle 3338" width="20" height="20" rx="10" transform="translate(167 1287)" fill="url(#radial-gradient)"/>
        <path id="Path_3275" data-name="Path 3275" d="M10488.852,7717.387a16.349,16.349,0,0,1,8.693-10.054,14.669,14.669,0,0,1,13.424,0s10.612,3.492,12.692,3.654,16.364,2.329,23.153-.638,22.26-15.375,19.811-30.019-7.783-13.729,0-23.8,15.834-20.548,21.646-22.859,9.953.754,15.127-1.992,6.842-5.672,11.576-5.354,9.316.937,9.316.937,4.232-24.346,31.717-15.193c20.615,3.364,57.363-3.364,57.363-3.364s39.383-9.588,50.5-11.579,16.18.984,21.672-2.517,14.139-7.758,21.029-8.079,60.809-.748,68.121-4.827,8.791-4.778,14.051-3.181,8.76,10.366,15.926,14.027,15.881,5.628,26.863,5.628,26.453-2.906,38.969-9.61,11.374-8.791,17.688-10.046,33.7-1.373,40.275-2.448,7.646-3.959,13.434-4.577,16.313-4.278,18.762-5.949,11.135-12.027,14.416-18.238,11.281-5.035,15.859-5.035,36.383-7.847,52.4-13.8,48.057-14.21,54.92-16.637,48.281-29.816,53.934-34.851,6.271-9.612,16.639-10.984,29.287-14.667,33.865-16.337,14.619.159,20.73-3.044,35.4-14.713,40.893-17.62,11.6-9.633,22.129-12.974,29.426-8.811,35.992-7.3,38.418-.411,43.775-2.38,16.018-2.289,15.1-12.356,11.514-20.138,11.514-20.138" transform="translate(-10311.068 -6419.777)" fill="none" stroke="#f5f5f5" stroke-width="3"/>
        <circle id="Ellipse_74" data-name="Ellipse 74" cx="5" cy="5" r="5" transform="translate(1179 947)" fill="#04ac37"/>
        <circle id="Ellipse_74-2" data-name="Ellipse 74" cx="5" cy="5" r="5" transform="translate(172 1292)" fill="#04ac37"/>
      </g>
    </g>
    <g id="Group_919" data-name="Group 919">
      <rect id="Rectangle_3337" data-name="Rectangle 3337" width="90" height="25" rx="10" transform="translate(82 1318)" fill="#545870" opacity="0.8"/>
      <g id="Group_876" data-name="Group 876" transform="translate(-28 -40)">
        <text id="Mumbai" transform="translate(122 1377)" fill="#fff" font-size="18" font-family="Planer-Regular, Planer"><tspan x="0" y="0">MUMBAI</tspan></text>
      </g>
    </g>
    <g id="Group_877" data-name="Group 877" transform="translate(-21 -32)">
      <rect id="Rectangle_3348" data-name="Rectangle 3348" width="90" height="25" rx="10" transform="translate(1184 941)" fill="#545870" opacity="0.8"/>
      <text id="Nagpur" transform="translate(1195 959)" fill="#fff" font-size="18" font-family="Planer-Regular, Planer"><tspan x="0" y="0">NAGPUR</tspan></text>
    </g>
  </g>
</svg>
