<svg xmlns="http://www.w3.org/2000/svg" width="27" height="27" viewBox="0 0 27 27">
  <g id="Open_fullscreen" transform="translate(-15156.5 -14893.5)">
    <g id="Group_754" data-name="Group 754" transform="translate(15157.5 14894.5)">
      <path id="Path_3329" data-name="Path 3329" d="M393.959,293.7h18.882a3.075,3.075,0,0,0,3.059-3.059V271.759a3.075,3.075,0,0,0-3.059-3.059H393.959a3.075,3.075,0,0,0-3.059,3.059v18.882A3.056,3.056,0,0,0,393.959,293.7Z" transform="translate(-390.9 -268.7)" fill="none" stroke="#f5f5f5" stroke-miterlimit="10" stroke-width="2"/>
      <g id="Group_715" data-name="Group 715" transform="translate(3.511 3.511)">
        <g id="Group_713" data-name="Group 713" transform="translate(9.929)">
          <path id="Path_3330" data-name="Path 3330" d="M441.368,288.269v-6.254a1.435,1.435,0,0,0-1.439-1.415H433.6" transform="translate(-433.6 -280.6)" fill="none" stroke="#f5f5f5" stroke-linecap="round" stroke-miterlimit="10" stroke-width="2"/>
        </g>
        <g id="Group_714" data-name="Group 714" transform="translate(0 10.028)">
          <path id="Path_3331" data-name="Path 3331" d="M401.8,310.9v6.254a1.435,1.435,0,0,0,1.439,1.415h6.329" transform="translate(-401.8 -310.9)" fill="none" stroke="#f5f5f5" stroke-linecap="round" stroke-miterlimit="10" stroke-width="2"/>
        </g>
      </g>
    </g>
  </g>
</svg>
