<svg xmlns="http://www.w3.org/2000/svg" width="31" height="31" viewBox="0 0 31 31">
  <g id="railway" transform="translate(-241 -1314)">
    <path id="Path_3486" data-name="Path 3486" d="M15.5,0A15.5,15.5,0,1,1,0,15.5,15.5,15.5,0,0,1,15.5,0Z" transform="translate(241 1314)" fill="#242634"/>
    <g id="train" transform="translate(181.665 1321)">
      <g id="Group_583" data-name="Group 583" transform="translate(69.335)">
        <g id="Group_582" data-name="Group 582">
          <path id="Path_3298" data-name="Path 3298" d="M81.159,12.554v-8.5c0-1.68-1.029-1.967-3.9-2.016L77.735.852c.907.151,1.363.364,1.4.5a.338.338,0,1,0,.676,0C79.807.176,76.94,0,75.23,0c-1.365,0-4.544.132-4.544,1.351a.338.338,0,1,0,.676,0c.034-.135.486-.351,1.4-.5l.475,1.187c-2.867.05-3.9.337-3.9,2.017v8.5a2.443,2.443,0,0,0,1.631,2.254l-1.149.792a.338.338,0,0,0,.384.556l1.873-1.291h6.344l1.872,1.291a.338.338,0,0,0,.384-.556L79.5,14.786A2.136,2.136,0,0,0,81.159,12.554ZM75.23.676a17.8,17.8,0,0,1,1.813.085L76.537,2.03c-.4,0-.826,0-1.29,0s-.889,0-1.29,0L73.449.759A17.571,17.571,0,0,1,75.23.676Zm5.253,11.878a1.5,1.5,0,0,1-1.689,1.634H71.362a1.687,1.687,0,0,1-1.351-1.634v-8.5c0-1.225.489-1.351,5.236-1.351s5.236.126,5.236,1.351Z" transform="translate(-69.335 0)" fill="#f18d46"/>
          <path id="Path_3299" data-name="Path 3299" d="M113.106,133.743h6.885a1.169,1.169,0,0,0,1.131-1.088V128.9c0-.589-.568-.9-1.131-.9h-6.885a.983.983,0,0,0-1.1.9v3.757A1.155,1.155,0,0,0,113.106,133.743Zm-.428-4.845c0-.162.262-.222.428-.222h6.885c.191,0,.455.077.455.222v3.757a.517.517,0,0,1-.456.412h-6.885a.484.484,0,0,1-.428-.412V128.9Z" transform="translate(-110.651 -123.946)" fill="#f18d46"/>
          <path id="Path_3300" data-name="Path 3300" d="M316.019,341.333a1.351,1.351,0,1,0,1.351,1.351A1.351,1.351,0,0,0,316.019,341.333Zm0,2.027a.676.676,0,1,1,.676-.676A.676.676,0,0,1,316.019,343.36Z" transform="translate(-306.898 -330.523)" fill="#f18d46"/>
          <path id="Path_3301" data-name="Path 3301" d="M113.353,341.333a1.351,1.351,0,1,0,1.351,1.351A1.351,1.351,0,0,0,113.353,341.333Zm0,2.027a.676.676,0,1,1,.676-.676A.676.676,0,0,1,113.353,343.36Z" transform="translate(-110.651 -330.523)" fill="#f18d46"/>
        </g>
      </g>
    </g>
  </g>
</svg>
